<svg xmlns="http://www.w3.org/2000/svg" viewBox="0 0 1280 400" width="1280" height="400" role="img" aria-label="Building the evaluation flywheel: a human-aligned evaluation loop for an LLM data-analysis agent">
  <defs>
    <style>

      .sans{font-family:"Kurrent",Inter,-apple-system,system-ui,sans-serif}
      .mono{font-family:"Kurrent Mono",ui-monospace,"SF Mono",Menlo,monospace}
    </style>
    <linearGradient id="ground" x1="0" y1="0" x2="1" y2="1">
      <stop offset="0" stop-color="#013f42"/>
      <stop offset="0.55" stop-color="#025558"/>
      <stop offset="1" stop-color="#04716e"/>
    </linearGradient>
    <linearGradient id="fade" x1="0" y1="0" x2="1" y2="0">
      <stop offset="0" stop-color="#025558" stop-opacity="0.98"/>
      <stop offset="0.52" stop-color="#025558" stop-opacity="0.88"/>
      <stop offset="1" stop-color="#025558" stop-opacity="0"/>
    </linearGradient>
    <pattern id="rule" width="9" height="400" patternUnits="userSpaceOnUse">
      <rect x="0" width="1" height="400" fill="#ffffff" opacity="0.035"/>
    </pattern>
  </defs>

  <rect width="1280" height="400" fill="url(#ground)"/>
  <g><circle cx="914" cy="222" r="4.5" fill="#9fe8dd" opacity="0.70"/><circle cx="950" cy="231" r="4.5" fill="#f2f0eb" opacity="0.73"/><circle cx="740" cy="204" r="4.5" fill="#f2f0eb" opacity="0.58"/><circle cx="681" cy="129" r="4.5" fill="#f2f0eb" opacity="0.54"/><circle cx="679" cy="311" r="4.5" fill="#f2f0eb" opacity="0.54"/><circle cx="1258" cy="367" r="4.5" fill="#f2f0eb" opacity="0.94"/><circle cx="1045" cy="242" r="4.5" fill="#9fe8dd" opacity="0.79"/><circle cx="963" cy="41" r="4.5" fill="#9fe8dd" opacity="0.74"/><circle cx="744" cy="107" r="4.5" fill="#9fe8dd" opacity="0.59"/><circle cx="906" cy="323" r="4.5" fill="#f2f0eb" opacity="0.70"/><circle cx="957" cy="251" r="4.5" fill="#f2f0eb" opacity="0.73"/><circle cx="917" cy="120" r="4.5" fill="#9fe8dd" opacity="0.71"/><circle cx="1268" cy="378" r="4.5" fill="#9fe8dd" opacity="0.95"/><circle cx="825" cy="103" r="4.5" fill="#f2f0eb" opacity="0.64"/><circle cx="808" cy="45" r="4.5" fill="#9fe8dd" opacity="0.63"/><circle cx="1170" cy="159" r="4.5" fill="#9fe8dd" opacity="0.88"/><circle cx="1243" cy="325" r="4.5" fill="#9fe8dd" opacity="0.93"/><circle cx="1212" cy="189" r="4.5" fill="#9fe8dd" opacity="0.91"/><circle cx="1257" cy="163" r="4.5" fill="#9fe8dd" opacity="0.94"/><circle cx="1126" cy="117" r="4.5" fill="#9fe8dd" opacity="0.85"/><circle cx="677" cy="140" r="4.5" fill="#9fe8dd" opacity="0.54"/><circle cx="697" cy="109" r="4.5" fill="#f2f0eb" opacity="0.55"/><circle cx="686" cy="42" r="4.5" fill="#9fe8dd" opacity="0.55"/><circle cx="984" cy="181" r="4.5" fill="#9fe8dd" opacity="0.75"/><circle cx="744" cy="283" r="4.5" fill="#f2f0eb" opacity="0.59"/><circle cx="696" cy="171" r="4.5" fill="#f2f0eb" opacity="0.55"/><circle cx="758" cy="117" r="4.5" fill="#9fe8dd" opacity="0.60"/><circle cx="818" cy="339" r="4.5" fill="#f2f0eb" opacity="0.64"/><circle cx="757" cy="162" r="4.5" fill="#f2f0eb" opacity="0.59"/><circle cx="685" cy="376" r="4.5" fill="#f2f0eb" opacity="0.55"/><circle cx="759" cy="113" r="4.5" fill="#f2f0eb" opacity="0.60"/><circle cx="813" cy="46" r="4.5" fill="#9fe8dd" opacity="0.63"/><circle cx="679" cy="230" r="4.5" fill="#f2f0eb" opacity="0.54"/><circle cx="862" cy="183" r="4.5" fill="#9fe8dd" opacity="0.67"/><circle cx="1243" cy="194" r="4.5" fill="#9fe8dd" opacity="0.93"/><circle cx="739" cy="75" r="4.5" fill="#f2f0eb" opacity="0.58"/><circle cx="1210" cy="314" r="4.5" fill="#9fe8dd" opacity="0.91"/><circle cx="1101" cy="359" r="4.5" fill="#f2f0eb" opacity="0.83"/><circle cx="748" cy="362" r="4.5" fill="#f2f0eb" opacity="0.59"/><circle cx="894" cy="57" r="4.5" fill="#9fe8dd" opacity="0.69"/><circle cx="645" cy="367" r="4.5" fill="#f2f0eb" opacity="0.52"/><circle cx="787" cy="317" r="4.5" fill="#f2f0eb" opacity="0.62"/><circle cx="1008" cy="126" r="4.5" fill="#9fe8dd" opacity="0.77"/><circle cx="665" cy="102" r="4.5" fill="#9fe8dd" opacity="0.53"/><circle cx="984" cy="327" r="4.5" fill="#f2f0eb" opacity="0.75"/><circle cx="1216" cy="93" r="4.5" fill="#9fe8dd" opacity="0.91"/><circle cx="631" cy="117" r="4.5" fill="#f2f0eb" opacity="0.51"/><circle cx="735" cy="153" r="4.5" fill="#f2f0eb" opacity="0.58"/><circle cx="992" cy="67" r="4.5" fill="#9fe8dd" opacity="0.76"/><circle cx="1257" cy="256" r="4.5" fill="#9fe8dd" opacity="0.94"/><circle cx="1069" cy="230" r="4.5" fill="#9fe8dd" opacity="0.81"/><circle cx="632" cy="348" r="4.5" fill="#f2f0eb" opacity="0.51"/><circle cx="1076" cy="367" r="4.5" fill="#f2f0eb" opacity="0.82"/><circle cx="933" cy="283" r="4.5" fill="#f2f0eb" opacity="0.72"/><circle cx="827" cy="380" r="4.5" fill="#f2f0eb" opacity="0.64"/><circle cx="1099" cy="344" r="4.5" fill="#f2f0eb" opacity="0.83"/><circle cx="1099" cy="273" r="4.5" fill="#9fe8dd" opacity="0.83"/><circle cx="849" cy="267" r="4.5" fill="#f2f0eb" opacity="0.66"/><circle cx="1206" cy="334" r="4.5" fill="#f2f0eb" opacity="0.91"/><circle cx="1181" cy="226" r="4.5" fill="#9fe8dd" opacity="0.89"/><circle cx="1026" cy="158" r="4.5" fill="#9fe8dd" opacity="0.78"/><circle cx="672" cy="250" r="4.5" fill="#f2f0eb" opacity="0.54"/><circle cx="1266" cy="337" r="4.5" fill="#9fe8dd" opacity="0.95"/><circle cx="1098" cy="229" r="4.5" fill="#f2f0eb" opacity="0.83"/><circle cx="906" cy="322" r="4.5" fill="#f2f0eb" opacity="0.70"/><circle cx="639" cy="236" r="4.5" fill="#f2f0eb" opacity="0.51"/><circle cx="933" cy="103" r="4.5" fill="#9fe8dd" opacity="0.72"/><circle cx="1019" cy="351" r="4.5" fill="#f2f0eb" opacity="0.78"/><circle cx="786" cy="24" r="4.5" fill="#9fe8dd" opacity="0.62"/><circle cx="752" cy="81" r="4.5" fill="#9fe8dd" opacity="0.59"/><circle cx="1209" cy="258" r="4.5" fill="#f2f0eb" opacity="0.91"/><circle cx="833" cy="260" r="4.5" fill="#f2f0eb" opacity="0.65"/><circle cx="749" cy="175" r="4.5" fill="#f2f0eb" opacity="0.59"/><circle cx="1192" cy="158" r="4.5" fill="#9fe8dd" opacity="0.90"/><circle cx="999" cy="134" r="4.5" fill="#9fe8dd" opacity="0.76"/><circle cx="1164" cy="326" r="4.5" fill="#9fe8dd" opacity="0.88"/><circle cx="1082" cy="362" r="4.5" fill="#f2f0eb" opacity="0.82"/><circle cx="913" cy="119" r="4.5" fill="#9fe8dd" opacity="0.70"/><circle cx="759" cy="169" r="4.5" fill="#f2f0eb" opacity="0.60"/><circle cx="825" cy="322" r="4.5" fill="#f2f0eb" opacity="0.64"/><circle cx="1258" cy="183" r="4.5" fill="#9fe8dd" opacity="0.94"/><circle cx="1187" cy="35" r="4.5" fill="#9fe8dd" opacity="0.89"/><circle cx="1081" cy="225" r="4.5" fill="#9fe8dd" opacity="0.82"/><circle cx="632" cy="69" r="4.5" fill="#9fe8dd" opacity="0.51"/><circle cx="916" cy="29" r="4.5" fill="#9fe8dd" opacity="0.70"/><circle cx="712" cy="37" r="4.5" fill="#f2f0eb" opacity="0.56"/><circle cx="1029" cy="181" r="4.5" fill="#9fe8dd" opacity="0.78"/><circle cx="1145" cy="365" r="4.5" fill="#f2f0eb" opacity="0.86"/><circle cx="1065" cy="92" r="4.5" fill="#9fe8dd" opacity="0.81"/><circle cx="627" cy="190" r="4.5" fill="#f2f0eb" opacity="0.50"/><circle cx="1084" cy="84" r="4.5" fill="#9fe8dd" opacity="0.82"/><circle cx="1073" cy="207" r="4.5" fill="#9fe8dd" opacity="0.81"/><circle cx="1019" cy="292" r="4.5" fill="#f2f0eb" opacity="0.78"/><circle cx="1209" cy="51" r="4.5" fill="#9fe8dd" opacity="0.91"/><circle cx="1226" cy="280" r="4.5" fill="#9fe8dd" opacity="0.92"/><circle cx="1027" cy="348" r="4.5" fill="#f2f0eb" opacity="0.78"/><circle cx="865" cy="225" r="4.5" fill="#9fe8dd" opacity="0.67"/><circle cx="1234" cy="187" r="4.5" fill="#9fe8dd" opacity="0.92"/><circle cx="1043" cy="94" r="4.5" fill="#9fe8dd" opacity="0.79"/><circle cx="1037" cy="278" r="4.5" fill="#f2f0eb" opacity="0.79"/><circle cx="759" cy="344" r="4.5" fill="#f2f0eb" opacity="0.60"/><circle cx="969" cy="305" r="4.5" fill="#f2f0eb" opacity="0.74"/><circle cx="828" cy="348" r="4.5" fill="#f2f0eb" opacity="0.64"/><circle cx="674" cy="179" r="4.5" fill="#f2f0eb" opacity="0.54"/><circle cx="978" cy="297" r="4.5" fill="#f2f0eb" opacity="0.75"/><circle cx="1146" cy="43" r="4.5" fill="#9fe8dd" opacity="0.86"/><circle cx="1140" cy="82" r="4.5" fill="#9fe8dd" opacity="0.86"/><circle cx="711" cy="74" r="4.5" fill="#9fe8dd" opacity="0.56"/><circle cx="956" cy="280" r="4.5" fill="#f2f0eb" opacity="0.73"/><circle cx="1235" cy="197" r="4.5" fill="#9fe8dd" opacity="0.93"/><circle cx="1237" cy="51" r="4.5" fill="#9fe8dd" opacity="0.93"/><circle cx="809" cy="282" r="4.5" fill="#f2f0eb" opacity="0.63"/><circle cx="1035" cy="208" r="4.5" fill="#9fe8dd" opacity="0.79"/><circle cx="823" cy="157" r="4.5" fill="#f2f0eb" opacity="0.64"/><circle cx="1169" cy="344" r="4.5" fill="#9fe8dd" opacity="0.88"/><circle cx="1249" cy="209" r="4.5" fill="#9fe8dd" opacity="0.94"/><circle cx="992" cy="92" r="4.5" fill="#9fe8dd" opacity="0.76"/><circle cx="1013" cy="30" r="4.5" fill="#9fe8dd" opacity="0.77"/><circle cx="1250" cy="206" r="4.5" fill="#9fe8dd" opacity="0.94"/><circle cx="986" cy="197" r="4.5" fill="#9fe8dd" opacity="0.75"/></g>
  <path d="M660,190 L673,200 L686,210 L699,220 L712,229 L725,238 L738,246 L751,253 L764,259 L777,264 L790,268 L803,271 L816,273 L829,274 L842,274 L855,272 L868,270 L881,267 L894,263 L907,258 L920,253 L933,248 L946,243 L959,237 L972,232 L985,227 L998,223 L1011,219 L1024,216 L1037,213 L1050,212 L1063,212 L1076,212 L1089,214 L1102,217 L1115,221 L1128,226 L1141,233 L1154,240 L1167,248 L1180,256 L1193,266 L1206,275 L1219,286 L1232,296 L1245,306 L1258,316 L1271,326" fill="none" stroke="#ff9747" stroke-width="5" stroke-linecap="round" opacity=".92"/>
  <rect width="1280" height="400" fill="url(#rule)"/>
  <rect width="1280" height="400" fill="url(#fade)"/>

  <text class="mono" x="88" y="120" font-size="15" letter-spacing="3.6" fill="rgba(250,249,245,.55)">PYDATA 2026 &#183; BAUKE BRENNINKMEIJER &#183; ORQ.AI</text>
  <text class="mono" x="88" y="196" font-size="17" letter-spacing="4.4" fill="#9fe8dd">FIFTY CASES &#183; ALIGNED JUDGES &#183; AGENT EVALS</text>
  <text class="sans" x="86" y="268" font-size="56" font-weight="600" letter-spacing="-1.6" fill="#faf9f5">building the evaluation flywheel</text>
  <text class="sans" x="88" y="316" font-size="22" font-weight="400" fill="rgba(250,249,245,.78)">Humans draw the boundary. The judge is validated against them. Then it scales.</text>
</svg>
